<svg xmlns="http://www.w3.org/2000/svg" version="1.1" xmlns:xlink="http://www.w3.org/1999/xlink" xmlns:svgjs="http://svgjs.dev/svgjs" width="1000" height="750" viewBox="0 0 1000 750"><rect width="1000" height="750" fill="#010536"></rect><g transform="matrix(0.5191111111111111,0,0,0.5191111111111111,240.44444444444446,83)"><svg viewBox="0 0 320 360" data-background-color="#010536" preserveAspectRatio="xMidYMid meet" height="1125" width="1000" xmlns="http://www.w3.org/2000/svg" xmlns:xlink="http://www.w3.org/1999/xlink"><g id="tight-bounds" transform="matrix(1,0,0,1,0,0)"><svg viewBox="0 0 320 360" height="360" width="320"><g><svg></svg></g><g><svg viewBox="0 0 320 360" height="360" width="320"><g><path xmlns="http://www.w3.org/2000/svg" d="M320 141.95l-19.957-19.957v-28.224l-53.812-53.812h-28.223l-19.958-19.957h-76.1l-19.957 19.957h-28.224l-53.812 53.812v28.224l-19.957 19.957v76.104l19.957 19.958v28.223l53.816 53.808h28.224l19.957 19.957h76.104l19.958-19.957h28.223l53.812-53.812v-28.224l19.949-19.957zM244.374 44.437l51.189 51.189v21.887l-73.076-73.076zM295.563 123.849v112.306l-79.408 79.408h-112.306l-79.412-79.412v-112.302l79.412-79.412h112.306zM123.807 24.48h72.39l15.478 15.477h-103.346zM24.437 95.626l51.189-51.189h21.887l-73.076 73.076zM4.484 216.197v-72.394l15.477-15.478v103.342zM75.626 315.563l-51.189-51.189v-21.887l73.076 73.076zM196.197 335.52h-72.39l-15.478-15.477h103.342zM295.563 264.374l-51.189 51.189h-21.887l73.076-73.076zM315.52 216.197l-15.477 15.478v-103.346l15.477 15.478z" fill="#fbfbf8" fill-rule="nonzero" stroke="none" stroke-width="1" stroke-linecap="butt" stroke-linejoin="miter" stroke-miterlimit="10" stroke-dasharray="" stroke-dashoffset="0" font-family="none" font-weight="none" font-size="none" text-anchor="none" style="mix-blend-mode: normal" data-fill-palette-color="tertiary"></path></g><g transform="matrix(1,0,0,1,56,154.87881286067602)"><svg viewBox="0 0 208 50.242374278647986" height="50.242374278647986" width="208"><g><svg viewBox="0 0 208.00000000000003 50.24237427864799" height="50.242374278647986" width="208"><g><svg viewBox="0 0 208.00000000000003 50.24237427864799" height="50.24237427864799" width="208.00000000000003"><g id="textblocktransform"><svg viewBox="0 0 208.00000000000003 50.24237427864799" height="50.24237427864799" width="208.00000000000003" id="textblock"><g><svg viewBox="0 0 208.00000000000003 50.24237427864799" height="50.24237427864799" width="208.00000000000003"><g transform="matrix(1,0,0,1,0,0)"><svg width="208.00000000000003" viewBox="2.25 -37.25 181.94000244140625 43.95000076293945" height="50.24237427864799" data-palette-color="#fbfbf8"><path d="M37.5-2.1L31 3.3Q29.45 4.6 27.05 5.28 24.65 5.95 21.4 5.95L21.4 5.95 4.55 5.95Q3.35 5.95 2.8 5.4 2.25 4.85 2.25 3.65L2.25 3.65 2.25-28.75Q2.25-29.4 2.43-29.85 2.6-30.3 2.95-30.6L2.95-30.6 9.4-36.05Q9.65-36.25 10.08-36.38 10.5-36.5 11-36.5L11-36.5 27.85-36.5Q34.4-36.5 37.52-33.85 40.65-31.2 40.65-25.8L40.65-25.8 40.65-10.2Q40.65-7.5 39.85-5.48 39.05-3.45 37.5-2.1L37.5-2.1ZM11 0L27.85 0Q34.1 0 37.13-2.5 40.15-5 40.15-10.2L40.15-10.2 40.15-25.8Q40.15-31 37.13-33.5 34.1-36 27.85-36L27.85-36 11-36Q10.05-36 9.63-35.58 9.2-35.15 9.2-34.2L9.2-34.2 9.2-1.8Q9.2-0.85 9.63-0.43 10.05 0 11 0L11 0ZM26.75-4.5L14.65-4.5 14.65-31.5 26.75-31.5Q29.3-31.5 30.88-30.95 32.45-30.4 33.3-29.48 34.15-28.55 34.45-27.28 34.75-26 34.75-24.55L34.75-24.55 34.75-11.3Q34.75-9.85 34.48-8.6 34.2-7.35 33.35-6.45 32.5-5.55 30.9-5.03 29.3-4.5 26.75-4.5L26.75-4.5ZM26.75-31L26.75-31 15.15-31 15.15-5 26.75-5Q29.15-5 30.63-5.48 32.1-5.95 32.9-6.78 33.7-7.6 33.98-8.78 34.25-9.95 34.25-11.3L34.25-11.3 34.25-24.55Q34.25-25.9 33.95-27.1 33.65-28.3 32.85-29.15 32.05-30 30.58-30.5 29.1-31 26.75-31ZM20.55-9.45L20.55-26.45 26.5-26.45Q27.7-26.45 28.28-25.88 28.85-25.3 28.85-24.05L28.85-24.05 28.85-11.9Q28.85-10.65 28.28-10.05 27.7-9.45 26.5-9.45L26.5-9.45 20.55-9.45ZM21.9-9.95L21.9-18.6Q21.9-19.25 21.7-19.7 21.5-20.15 21.05-20.35L21.05-20.35 21.05-9.95 21.9-9.95ZM56.25 5.95L56.25 5.95 46.15 5.95Q44.95 5.95 44.4 5.4 43.85 4.85 43.85 3.65L43.85 3.65 43.85-6.5Q43.85-7.15 44.02-7.63 44.2-8.1 44.5-8.35L44.5-8.35 51-13.8Q51.25-14 51.65-14.13 52.05-14.25 52.6-14.25L52.6-14.25 62.7-14.25Q63.9-14.25 64.45-13.73 65-13.2 65-11.95L65-11.95 65-1.8Q65-1.15 64.82-0.7 64.65-0.25 64.3 0.05L64.3 0.05 57.8 5.45Q57.6 5.65 57.17 5.8 56.75 5.95 56.25 5.95ZM52.6 0L62.7 0Q63.65 0 64.07-0.43 64.5-0.85 64.5-1.8L64.5-1.8 64.5-11.95Q64.5-12.9 64.07-13.33 63.65-13.75 62.7-13.75L62.7-13.75 52.6-13.75Q51.65-13.75 51.22-13.33 50.8-12.9 50.8-11.95L50.8-11.95 50.8-1.8Q50.8-0.85 51.22-0.43 51.65 0 52.6 0L52.6 0ZM57.9-4.5L57.4-4.5 57.4-9.25 57.9-9.25 57.9-4.5ZM78.8 5.95L78.8 5.95 71.05 5.95Q69.84 5.95 69.3 5.4 68.75 4.85 68.75 3.65L68.75 3.65 68.75-28.75Q68.75-29.4 68.92-29.85 69.09-30.3 69.45-30.6L69.45-30.6 75.9-36.05Q76.15-36.25 76.57-36.38 77-36.5 77.5-36.5L77.5-36.5 99.8-36.5Q101-36.5 101.55-35.95 102.09-35.4 102.09-34.2L102.09-34.2 102.09-28.25Q102.09-27.6 101.92-27.15 101.75-26.7 101.4-26.4L101.4-26.4 95.8-21.75Q96.95-21.75 97.5-21.2 98.05-20.65 98.05-19.45L98.05-19.45 98.05-13.45Q98.05-12.8 97.87-12.35 97.7-11.9 97.34-11.6L97.34-11.6 90.84-6.2Q90.65-6 90.22-5.85 89.8-5.7 89.3-5.7L89.3-5.7 87.55-5.7 87.55-1.8Q87.55-1.15 87.37-0.7 87.2-0.25 86.84 0.05L86.84 0.05 80.34 5.45Q80.15 5.65 79.72 5.8 79.3 5.95 78.8 5.95ZM77.5 0L85.25 0Q86.2 0 86.62-0.43 87.05-0.85 87.05-1.8L87.05-1.8 87.05-11.65 95.75-11.65Q96.7-11.65 97.12-12.08 97.55-12.5 97.55-13.45L97.55-13.45 97.55-19.45Q97.55-20.4 97.12-20.83 96.7-21.25 95.75-21.25L95.75-21.25 87.05-21.25 87.05-26.45 99.8-26.45Q100.75-26.45 101.17-26.88 101.59-27.3 101.59-28.25L101.59-28.25 101.59-34.2Q101.59-35.15 101.17-35.58 100.75-36 99.8-36L99.8-36 77.5-36Q76.55-36 76.12-35.58 75.7-35.15 75.7-34.2L75.7-34.2 75.7-1.8Q75.7-0.85 76.12-0.43 76.55 0 77.5 0L77.5 0ZM81.65-4.5L81.15-4.5 81.15-31.5 97.09-31.5 97.09-31 81.65-31 81.65-16.7 93.05-16.7 93.05-16.2 81.65-16.2 81.65-4.5ZM139.34-1.85L132.89 3.55Q131.14 5.05 127.99 5.88 124.84 6.7 119.89 6.7L119.89 6.7Q114.99 6.7 111.87 5.68 108.74 4.65 106.97 2.95 105.19 1.25 104.52-0.95 103.84-3.15 103.84-5.5L103.84-5.5 103.84-21.05Q103.84-23.35 104.49-25.33 105.14-27.3 106.84-28.7L106.84-28.7 113.34-34.1Q115.09-35.6 118.22-36.43 121.34-37.25 126.34-37.25L126.34-37.25Q131.24-37.25 134.37-36.45 137.49-35.65 139.27-34.23 141.04-32.8 141.69-30.83 142.34-28.85 142.34-26.5L142.34-26.5 142.34-9.45Q142.34-7.15 141.69-5.2 141.04-3.25 139.34-1.85L139.34-1.85ZM141.84-9.45L141.84-9.45 141.84-26.5Q141.84-28.8 141.17-30.68 140.49-32.55 138.77-33.9 137.04-35.25 134.02-36 130.99-36.75 126.34-36.75L126.34-36.75Q121.69-36.75 118.64-36 115.59-35.25 113.87-33.9 112.14-32.55 111.47-30.68 110.79-28.8 110.79-26.5L110.79-26.5 110.79-9.45Q110.79-7.15 111.47-5.28 112.14-3.4 113.87-2.08 115.59-0.75 118.64 0 121.69 0.75 126.34 0.75L126.34 0.75Q130.99 0.75 134.02 0 137.04-0.75 138.77-2.08 140.49-3.4 141.17-5.28 141.84-7.15 141.84-9.45ZM136.39-25.35L136.39-10.6Q136.39-7.6 134.24-5.73 132.09-3.85 126.24-3.85L126.24-3.85Q120.39-3.85 118.29-5.73 116.19-7.6 116.19-10.6L116.19-10.6 116.19-25.35Q116.19-28.35 118.29-30.23 120.39-32.1 126.24-32.1L126.24-32.1Q132.09-32.1 134.24-30.23 136.39-28.35 136.39-25.35L136.39-25.35ZM116.69-25.35L116.69-10.6Q116.69-7.8 118.69-6.08 120.69-4.35 126.24-4.35L126.24-4.35Q131.79-4.35 133.84-6.08 135.89-7.8 135.89-10.6L135.89-10.6 135.89-25.35Q135.89-28.15 133.84-29.88 131.79-31.6 126.24-31.6L126.24-31.6Q120.69-31.6 118.69-29.88 116.69-28.15 116.69-25.35L116.69-25.35ZM122.14-11.25L122.14-11.25 122.14-24.7Q122.14-25.65 122.89-26.33 123.64-27 126.34-27L126.34-27Q129.04-27 129.79-26.33 130.54-25.65 130.54-24.7L130.54-24.7 130.54-11.25Q130.54-10.25 129.79-9.58 129.04-8.9 126.34-8.9L126.34-8.9Q123.64-8.9 122.89-9.58 122.14-10.25 122.14-11.25ZM122.64-20.7L122.64-11.25Q122.64-10.75 122.84-10.38 123.04-10 123.59-9.75L123.59-9.75 123.59-19.25Q123.59-19.75 123.39-20.13 123.19-20.5 122.64-20.7L122.64-20.7ZM181.19-1.85L174.74 3.55Q172.99 5.05 169.84 5.88 166.69 6.7 161.74 6.7L161.74 6.7Q156.84 6.7 153.72 5.68 150.59 4.65 148.81 2.95 147.04 1.25 146.37-0.95 145.69-3.15 145.69-5.5L145.69-5.5 145.69-21.05Q145.69-23.35 146.34-25.33 146.99-27.3 148.69-28.7L148.69-28.7 155.19-34.1Q156.94-35.6 160.06-36.43 163.19-37.25 168.19-37.25L168.19-37.25Q173.09-37.25 176.22-36.45 179.34-35.65 181.12-34.23 182.89-32.8 183.54-30.83 184.19-28.85 184.19-26.5L184.19-26.5 184.19-9.45Q184.19-7.15 183.54-5.2 182.89-3.25 181.19-1.85L181.19-1.85ZM183.69-9.45L183.69-9.45 183.69-26.5Q183.69-28.8 183.02-30.68 182.34-32.55 180.62-33.9 178.89-35.25 175.87-36 172.84-36.75 168.19-36.75L168.19-36.75Q163.54-36.75 160.49-36 157.44-35.25 155.72-33.9 153.99-32.55 153.31-30.68 152.64-28.8 152.64-26.5L152.64-26.5 152.64-9.45Q152.64-7.15 153.31-5.28 153.99-3.4 155.72-2.08 157.44-0.75 160.49 0 163.54 0.75 168.19 0.75L168.19 0.75Q172.84 0.75 175.87 0 178.89-0.75 180.62-2.08 182.34-3.4 183.02-5.28 183.69-7.15 183.69-9.45ZM178.24-25.35L178.24-10.6Q178.24-7.6 176.09-5.73 173.94-3.85 168.09-3.85L168.09-3.85Q162.24-3.85 160.14-5.73 158.04-7.6 158.04-10.6L158.04-10.6 158.04-25.35Q158.04-28.35 160.14-30.23 162.24-32.1 168.09-32.1L168.09-32.1Q173.94-32.1 176.09-30.23 178.24-28.35 178.24-25.35L178.24-25.35ZM158.54-25.35L158.54-10.6Q158.54-7.8 160.54-6.08 162.54-4.35 168.09-4.35L168.09-4.35Q173.64-4.35 175.69-6.08 177.74-7.8 177.74-10.6L177.74-10.6 177.74-25.35Q177.74-28.15 175.69-29.88 173.64-31.6 168.09-31.6L168.09-31.6Q162.54-31.6 160.54-29.88 158.54-28.15 158.54-25.35L158.54-25.35ZM163.99-11.25L163.99-11.25 163.99-24.7Q163.99-25.65 164.74-26.33 165.49-27 168.19-27L168.19-27Q170.89-27 171.64-26.33 172.39-25.65 172.39-24.7L172.39-24.7 172.39-11.25Q172.39-10.25 171.64-9.58 170.89-8.9 168.19-8.9L168.19-8.9Q165.49-8.9 164.74-9.58 163.99-10.25 163.99-11.25ZM164.49-20.7L164.49-11.25Q164.49-10.75 164.69-10.38 164.89-10 165.44-9.75L165.44-9.75 165.44-19.25Q165.44-19.75 165.24-20.13 165.04-20.5 164.49-20.7L164.49-20.7Z" opacity="1" transform="matrix(1,0,0,1,0,0)" fill="#fbfbf8" class="undefined-text-0" data-fill-palette-color="primary" id="text-0"></path></svg></g></svg></g></svg></g></svg></g></svg></g></svg></g></svg></g><defs></defs></svg><rect width="320" height="360" fill="none" stroke="none" visibility="hidden"></rect></g></svg></g></svg>